classDiagram
direction TB
class Bore{
}
class BoreFlower{
	N : int
	Rarc : float
	alpha : float
	get_bore_line()
}
class BoreLSRPM{
	N : int
	Rarc : float
	W1 : float
	alpha : float
	get_bore_line()
}
class BoreUD{
	line_list : list~Line~
	get_bore_line()
}
class CondType11{
	Hwire : float
	Wwire : float
	Nwppc_rad : int
	Nwppc_tan : int
	Wins_wire : float
	Wins_coil : float
	type_winding_shape : int
	alpha_ew : float
	comp_surface_active()
	comp_height()
	comp_surface()
	comp_width()
	plot()
	plot_schematics()
	comp_width_wire()
	comp_height_wire()
	comp_nb_circumferential_wire()
	comp_nb_radial_wire()
	is_round_wire()
}
class CondType12{
	Wwire : float
	Wins_cond : float
	Nwppc : int
	Wins_wire : float
	Kwoh : float
	check()
	comp_surface_active()
	comp_height()
	comp_surface()
	comp_width()
	plot()
	plot_schematics()
	comp_width_wire()
	comp_height_wire()
	comp_nb_circumferential_wire()
	comp_nb_radial_wire()
	is_round_wire()
}
class CondType13{
	Wwire : float
	Wins_cond : float
	Nwppc_rad : int
	Nwppc_tan : int
	Wins_wire : float
	Kwoh : float
	comp_surface_active()
	comp_height()
	comp_surface()
	comp_width()
	plot()
	plot_schematics()
	comp_width_wire()
	comp_height_wire()
	comp_nb_circumferential_wire()
	comp_nb_radial_wire()
	is_round_wire()
}
class CondType21{
	Hbar : float
	Wbar : float
	Wins : float
	comp_surface_active()
	comp_height()
	comp_surface()
	comp_width()
	plot()
	comp_width_wire()
	comp_height_wire()
	comp_nb_circumferential_wire()
	comp_nb_radial_wire()
	is_round_wire()
}
class CondType22{
	Sbar : float
	comp_surface_active()
	comp_surface()
	comp_width_wire()
	comp_height_wire()
	comp_nb_circumferential_wire()
	comp_nb_radial_wire()
	is_round_wire()
}
class Conductor{
	cond_mat : Material
	ins_mat : Material
	check()
	comp_skin_effect_resistance()
	comp_skin_effect_inductance()
	comp_temperature_effect()
}
class EndWinding{
	Lew_enforced : float
	comp_length()
	comp_inductance()
}
class EndWindingCirc{
	coil_pitch : float
	comp_length()
	comp_inductance()
}
class EndWindingRect{
	coil_pitch : float
	lambda_length : float
	lambda_width : float
	comp_length()
	comp_inductance()
}
class Frame{
	Lfra : float
	Rint : float
	Rext : float
	mat_type : Material
	build_geometry()
	comp_height_eq()
	comp_mass()
	comp_surface()
	comp_volume()
	get_length()
	plot()
}
class FrameBar{
	Nbar : int
	wbar : float
	build_geometry()
	comp_surface()
	comp_height_gap()
	build_geometry_bar()
	comp_surface_bar()
	comp_surface_gap()
}
class LamHole{
	hole : list~Hole~
	build_geometry()
	comp_height_yoke()
	comp_masses()
	comp_surfaces()
	comp_volumes()
	get_pole_pair_number()
	plot()
	comp_radius_mid_yoke()
	has_magnet()
	comp_angle_d_axis()
	set_pole_pair_number()
	get_Zs()
}
class LamSlot{
	slot : Slot
	check()
	comp_radius_mec()
	comp_surfaces()
	get_pole_pair_number()
	plot()
	comp_height_yoke()
	get_Zs()
	get_bore_desc()
	set_pole_pair_number()
	comp_angle_d_axis()
	get_surfaces_closing()
	has_magnet()
}
class LamSlotMag{
	magnet : Magnet
	build_geometry()
	check()
	comp_masses()
	comp_radius_mec()
	comp_surfaces()
	comp_volumes()
	plot()
	comp_angle_d_axis()
}
class LamSlotMulti{
	slot_list : list~Slot~
	alpha : ndarray
	sym_dict_enforced : dict
	check()
	comp_radius_mec()
	comp_surfaces()
	get_pole_pair_number()
	plot()
	comp_height_yoke()
	get_Zs()
	get_bore_desc()
	comp_periodicity_spatial()
}
class LamSlotMultiWind{
	Ksfill : float
	winding : Winding
	plot()
	build_geometry()
	get_pole_pair_number()
	comp_mmf_dir()
	plot_mmf_unit()
	comp_mmf_unit()
	comp_wind_function()
	comp_angle_d_axis()
}
class LamSlotWind{
	Ksfill : float
	winding : Winding
	build_geometry()
	check()
	comp_masses()
	comp_surfaces()
	comp_volumes()
	get_pole_pair_number()
	plot()
	plot_winding()
	comp_fill_factor()
	comp_output_geo()
	get_polar_eq()
	comp_wind_function()
	plot_mmf_unit()
	comp_resistance_wind()
	comp_angle_d_axis()
	comp_mmf_unit()
	comp_mmf_dir()
	comp_lengths_winding()
	comp_number_phase_eq()
	comp_periodicity_spatial()
	set_pole_pair_number()
}
class LamSquirrelCage{
	Hscr : float
	Lscr : float
	ring_mat : Material
	build_geometry()
	check()
	comp_length_ring()
	plot()
	comp_number_phase_eq()
	comp_surface_ring()
	comp_resistance_wind()
	get_name_phase()
	comp_angle_d_axis()
	comp_periodicity_spatial()
	comp_masses()
	plot_schematics_scr()
	plot_side()
}
class LamSquirrelCageMag{
	hole : list~Hole~
	build_geometry()
	check()
	comp_surfaces()
	plot()
	get_pole_pair_number()
	set_pole_pair_number()
}
class Lamination{
	L1 : float
	mat_type : Material
	Nrvd : int
	Wrvd : float
	Kf1 : float
	is_internal : bool
	Rint : float
	Rext : float
	is_stator : bool
	axial_vent : list~Hole~
	notch : list~Notch~
	skew : Skew
	yoke_notch : list~Notch~
	bore : Bore
	build_geometry()
	check()
	comp_length()
	comp_masses()
	comp_radius_mec()
	comp_surface_axial_vent()
	comp_surfaces()
	comp_volumes()
	get_bore_line()
	get_Rbo()
	get_Ryoke()
	get_name_phase()
	plot()
	comp_output_geo()
	get_polar_eq()
	is_outwards()
	comp_height_yoke()
	get_notch_list()
	comp_angle_q_axis()
	comp_radius_mid_yoke()
	get_yoke_desc()
	get_bore_desc()
	comp_point_ref()
	comp_periodicity_spatial()
	get_label()
	get_yoke_side_line()
	get_notches_surf()
	comp_periodicity_duct_spatial()
	get_surfaces_closing()
	comp_periodicity_geo()
}
class Machine{
	frame : Frame
	shaft : Shaft
	name : str
	desc : str
	type_machine : int
	logger_name : str
	build_geometry()
	check()
	comp_angle_rotor_initial()
	comp_desc_dict()
	comp_length_airgap_active()
	comp_masses()
	comp_output_geo()
	comp_Rgap_mec()
	comp_periodicity_spatial()
	comp_width_airgap_mag()
	comp_width_airgap_mec()
	get_material_dict()
	get_polar_eq()
	plot()
	plot_anim_rotor()
	get_lam_list()
	get_lam_list_label()
	get_lam_by_label()
	get_lam_index()
	get_pole_pair_number()
	set_pole_pair_number()
	comp_periodicity_time()
}
class MachineAsync{
	is_synchronous()
	comp_desc_dict()
}
class MachineDFIM{
	rotor : LamSlotWind
	stator : LamSlotWind
	check()
	get_machine_type()
}
class MachineIPMSM{
	rotor : LamHole
	stator : Lamination
	check()
	get_machine_type()
}
class MachineLSPM{
	rotor : LamSquirrelCageMag
	stator : LamSlotWind
	check()
	get_machine_type()
}
class MachineSCIM{
	check()
	get_machine_type()
}
class MachineSIPMSM{
	rotor : LamSlotMag
	stator : Lamination
	check()
	get_machine_type()
}
class MachineSRM{
	rotor : LamSlot
	stator : LamSlotWind
	check()
	get_machine_type()
	get_pole_pair_number()
	set_pole_pair_number()
}
class MachineSyRM{
	rotor : LamHole
	stator : LamSlotWind
	check()
	get_machine_type()
}
class MachineSync{
	is_synchronous()
	comp_angle_rotor_initial()
}
class MachineUD{
	lam_list : list~Lamination~
	is_sync : bool
	build_geometry()
	is_synchronous()
}
class MachineWRSM{
	rotor : LamSlotWind
	stator : LamSlotWind
	check()
	get_machine_type()
}
class Magnet{
	mat_type : Material
	type_magnetization : int
	Lmag : float
	Nseg : int
}
class Notch{
	get_Rbo()
	is_outwards()
}
class NotchEvenDist{
	alpha : float
	notch_shape : Slot
	get_notch_list()
	comp_surface()
}
class Shaft{
	Lshaft : float
	mat_type : Material
	Drsh : float
	build_geometry()
	comp_mass()
	plot()
}
class Skew{
	type_skew : str
	rate : float
	is_step : bool
	function : function
	angle_list : list
	z_list : list
	Nstep : int
	angle_overall : float
	comp_angle()
	comp_pattern()
	plot()
}
class Winding{
	is_reverse_wind : bool
	Nslot_shift_wind : int
	qs : int
	Ntcoil : int
	Npcp : int
	type_connection : int
	p : int
	Lewout : float
	conductor : Conductor
	coil_pitch : int
	wind_mat : ndarray
	Nlayer : int
	per_a : int
	is_aper_a : bool
	end_winding : EndWinding
	is_reverse_layer : bool
	is_change_layer : bool
	is_permute_B_C : bool
	comp_connection_mat()
	comp_length_endwinding()
	comp_Ncspc()
	comp_Ntsp()
	comp_periodicity()
	comp_phasor_angle()
	comp_winding_factor()
	get_connection_mat()
	get_dim_wind()
	get_periodicity()
	export_to_csv()
	clean()
}
class WindingSC{
	comp_connection_mat()
	get_dim_wind()
	comp_periodicity()
}
class WindingUD{
	init_as_CW1L()
	init_as_CW2LR()
	init_as_CW2LT()
	init_as_DWL()
	import_from_csv()
}
Bore  <|--> BoreFlower
Bore  <|--> BoreLSRPM
Bore  <|--> BoreUD
Conductor  <|--> CondType11
Conductor  <|--> CondType12
Conductor  <|--> CondType13
Conductor  <|--> CondType21
Conductor  <|--> CondType22
EndWinding  <|--> EndWindingCirc
EndWinding  <|--> EndWindingRect
Frame  <|--> FrameBar
LamSlot  <|--> LamSlotMag
LamSlot  <|--> LamSlotWind
LamSlotMag *--> Magnet
LamSlotMulti  <|--> LamSlotMultiWind
LamSlotMultiWind *--> Winding
LamSlotWind  <|--> LamSquirrelCage
LamSlotWind *--> Winding
LamSquirrelCage  <|--> LamSquirrelCageMag
Lamination  <|--> LamHole
Lamination  <|--> LamSlot
Lamination  <|--> LamSlotMulti
Lamination *--> Bore
Lamination *--> Notch
Lamination *--> Skew
Machine  <|--> MachineAsync
Machine  <|--> MachineSync
Machine  <|--> MachineUD
Machine *--> Frame
Machine *--> Shaft
MachineAsync  <|--> MachineDFIM
MachineDFIM  <|--> MachineSCIM
MachineDFIM *--> LamSlotWind
MachineIPMSM *--> LamHole
MachineIPMSM *--> Lamination
MachineLSPM *--> LamSlotWind
MachineLSPM *--> LamSquirrelCageMag
MachineSIPMSM *--> LamSlotMag
MachineSIPMSM *--> Lamination
MachineSRM *--> LamSlot
MachineSRM *--> LamSlotWind
MachineSyRM *--> LamHole
MachineSyRM *--> LamSlotWind
MachineSync  <|--> MachineIPMSM
MachineSync  <|--> MachineLSPM
MachineSync  <|--> MachineSIPMSM
MachineSync  <|--> MachineSRM
MachineSync  <|--> MachineSyRM
MachineSync  <|--> MachineWRSM
MachineUD *--> Lamination
MachineWRSM *--> LamSlotWind
Notch  <|--> NotchEvenDist
Winding  <|--> WindingSC
Winding  <|--> WindingUD
Winding *--> Conductor
Winding *--> EndWinding
